<svg width="25" height="25" viewBox="0 0 25 25" fill="none" xmlns="http://www.w3.org/2000/svg">
<g clip-path="url(#clip0_4_43)">
<g opacity="0.65">
<path d="M25 12.5208C25.0035 10.4205 24.4777 8.35314 23.4712 6.50968C22.4646 4.66622 21.0098 3.10611 19.241 1.97343C17.4723 0.840755 15.4466 0.172029 13.3512 0.0290138C11.2557 -0.114001 9.15795 0.273308 7.25171 1.15517C5.34546 2.03703 3.69216 3.38501 2.44449 5.07462C1.19682 6.76423 0.395008 8.74099 0.113113 10.8223C-0.168782 12.9037 0.078325 15.0225 0.831613 16.9831C1.5849 18.9437 2.82008 20.6829 4.42308 22.0401C4.44808 22.0651 4.47308 22.0651 4.47308 22.0901C4.69808 22.2651 4.92308 22.4401 5.17308 22.6151C5.2957 22.6986 5.41262 22.7901 5.52308 22.8891C7.5893 24.2895 10.028 25.038 12.524 25.038C15.0201 25.038 17.4588 24.2895 19.525 22.8891C19.6481 22.8151 19.7481 22.717 19.8731 22.6401C20.0981 22.466 20.3481 22.291 20.5731 22.116C20.5981 22.091 20.6231 22.091 20.6231 22.066C21.9906 20.8785 23.0886 19.4125 23.8434 17.7661C24.5983 16.1197 24.9926 14.331 25 12.5199V12.5208ZM12.5 23.4593C10.2517 23.4593 8.05901 22.7607 6.225 21.4603C6.25463 21.2583 6.29637 21.0582 6.35 20.8612C6.49892 20.319 6.71741 19.7983 7 19.3122C7.26853 18.8401 7.60553 18.4105 8 18.0372C8.38502 17.6561 8.81287 17.3209 9.275 17.0382C9.75382 16.764 10.2665 16.5539 10.8 16.4132C11.8957 16.1227 13.0474 16.1173 14.1457 16.3975C15.244 16.6777 16.2524 17.2342 17.075 18.0141C17.6512 18.5929 18.1085 19.2789 18.4212 20.0333C18.5985 20.4927 18.7243 20.9703 18.7962 21.4574C16.9526 22.755 14.7544 23.4539 12.5 23.4593V23.4593ZM8.675 11.8968C8.46044 11.3908 8.34987 10.8469 8.34987 10.2973C8.34987 9.74771 8.46044 9.20374 8.675 8.69777C9.10644 7.70062 9.90229 6.9058 10.9 6.47566C11.4045 6.25595 11.9498 6.14552 12.5 6.15162C13.0505 6.14329 13.5963 6.25416 14.1 6.47662C15.0977 6.90676 15.8936 7.70158 16.325 8.69873C16.545 9.20284 16.6557 9.7478 16.65 10.2978C16.6585 10.848 16.5476 11.3936 16.325 11.8968C15.8943 12.8949 15.0983 13.6906 14.1 14.1208C13.0669 14.5454 11.9081 14.5454 10.875 14.1208C10.3825 13.904 9.9335 13.5994 9.55 13.2218C9.17149 12.8441 8.87378 12.3933 8.675 11.8968V11.8968ZM20.275 20.1872C20.275 20.1372 20.25 20.1122 20.25 20.0622C20.0041 19.2803 19.6417 18.5399 19.175 17.866C18.708 17.1864 18.1339 16.587 17.475 16.091C16.9719 15.7126 16.4266 15.3938 15.85 15.141C16.1123 14.9678 16.3554 14.767 16.575 14.542C16.9477 14.174 17.275 13.7628 17.55 13.317C18.1036 12.4075 18.3895 11.3604 18.375 10.2958C18.3828 9.50751 18.2296 8.72587 17.925 7.99873C17.6243 7.29796 17.1914 6.66169 16.65 6.12469C16.1094 5.59349 15.4733 5.16936 14.775 4.87469C13.3002 4.27562 11.6498 4.27562 10.175 4.87469C9.47065 5.16891 8.83292 5.60223 8.3 6.14873C7.76875 6.68889 7.34461 7.32478 7.05 8.02277C6.74511 8.75051 6.59198 9.53283 6.6 10.3218C6.59806 10.8548 6.67452 11.3851 6.82692 11.8958C6.96764 12.4053 7.17795 12.8929 7.45192 13.3449C7.71883 13.7963 8.04694 14.2085 8.42692 14.5699C8.65423 14.7964 8.90574 14.9973 9.17692 15.1689C8.59854 15.4284 8.05305 15.7557 7.55192 16.1439C6.90559 16.6438 6.33325 17.2327 5.85192 17.893C5.38053 18.564 5.01775 19.3052 4.77692 20.0891C4.75881 20.1282 4.75024 20.1711 4.75192 20.2141C3.48768 18.9383 2.5572 17.3707 2.04273 15.6499C1.52827 13.929 1.44567 12.1079 1.80223 10.3476C2.15879 8.58722 2.94353 6.94181 4.08708 5.55679C5.23063 4.17178 6.69778 3.08981 8.35884 2.40653C10.0199 1.72325 11.8237 1.4597 13.6108 1.63917C15.3979 1.81865 17.1133 2.43562 18.6053 3.43556C20.0973 4.4355 21.32 5.7876 22.1653 7.37236C23.0107 8.95711 23.4525 10.7257 23.4519 12.5218C23.4492 15.3965 22.3084 18.1532 20.2788 20.1891L20.275 20.1872Z" fill="#232323"/>
</g>
</g>
<defs>
<clipPath id="clip0_4_43">
<rect width="25" height="25" fill="white"/>
</clipPath>
</defs>
</svg>
