<svg width="21" height="25" viewBox="0 0 21 25" fill="none" xmlns="http://www.w3.org/2000/svg">
<g opacity="0.65">
<path fill-rule="evenodd" clip-rule="evenodd" d="M6.38937 5.31188H14.6104C14.529 4.94036 14.3989 4.51257 14.1927 4.09172C13.9253 3.54577 13.5389 3.02877 12.9764 2.64589C12.4195 2.26686 11.6332 1.9802 10.4995 1.9802C9.36581 1.9802 8.57959 2.26686 8.02284 2.64586C7.46043 3.02871 7.07417 3.54566 6.80684 4.09159C6.60074 4.51249 6.4707 4.94033 6.38937 5.31188ZM16.5706 5.31188L16.57 5.30781C16.4779 4.74445 16.2921 3.97833 15.911 3.20036C15.5279 2.41834 14.9387 1.60736 14.0379 0.994269C13.1315 0.377323 11.9669 0 10.4995 0C9.03216 0 7.86758 0.377323 6.96123 0.9943C6.06054 1.60743 5.4714 2.41845 5.08846 3.20049C4.7075 3.97849 4.5218 4.74462 4.42985 5.30799L4.42921 5.31188H0.962111C0.430752 5.31188 0 5.75516 0 6.30198V24.0099C0 24.5567 0.430752 25 0.962111 25H20.0379C20.5692 25 21 24.5567 21 24.0099V6.30198C21 5.75516 20.5692 5.31188 20.0379 5.31188H16.5706ZM15.7024 7.29208H1.92422V23.0198H19.0758V7.29208H15.7024Z" fill="#232323"/>
</g>
</svg>
