<svg xmlns="http://www.w3.org/2000/svg" width="701.262" height="203.456" viewBox="0 0 701.262 203.456">
  <g id="Сгруппировать_62" data-name="Сгруппировать 62" transform="translate(0 0)">
    <path id="Контур_4" data-name="Контур 4" d="M3.747-131.995l44.663-5.212V24.254l.145,11q0,9.838,1.158,14.4a15.056,15.056,0,0,0,4.488,7.6c2.7,2.6,4.708,4.582,11.948,5.932v3.04H3.637v-3.04c5.791-.771,8.459-1.855,10.969-3.252a14.9,14.9,0,0,0,6.081-7.157q1.593-3.325,2.244-10.048t.652-19.443V-90.211a202.7,202.7,0,0,0-.724-20.817,22.713,22.713,0,0,0-3.185-9.829,14.773,14.773,0,0,0-5.936-5.783q-3.475-1.734-9.99-2.168Z" transform="translate(217.268 137.207)" fill="#4d98e1"/>
    <path id="Контур_5" data-name="Контур 5" d="M43.1-70.755h33.81v5.5H43.1V19.011c0,10.135.25,17.374,3.714,21.718A22.859,22.859,0,0,0,55,46.84C57.986,48.191,60.235,48.4,63.7,48.4c4.33,0,9.342-2.679,9.342-2.679l2.1,2.534a45.929,45.929,0,0,1-8.4,5.216c-4.194,1.865-9.513,4.293-22.577,3.368C33.412,55.8,30.613,54.008,26.678,50.656c-2.8-2.317-6.377-7.49-7.246-10.723s-1.3-9.049-1.3-17.446V-65.253H2.637v-2.317Q12.048-70.61,20.024-79.3a58.122,58.122,0,0,0,7.722-10.642,75.291,75.291,0,0,0,5.539-13.682l1.457-4.778H43.1Z" transform="translate(132.278 145.463)" fill="#4d98e1"/>
    <path id="Контур_7" data-name="Контур 7" d="M43.1-70.755h33.81v5.5H43.1V19.011c0,10.135.25,17.374,3.714,21.718A22.859,22.859,0,0,0,55,46.84C57.986,48.191,60.235,48.4,63.7,48.4c4.33,0,9.342-2.679,9.342-2.679l2.1,2.534a45.929,45.929,0,0,1-8.4,5.216c-4.194,1.865-9.513,4.293-22.577,3.368C33.412,55.8,30.613,54.008,26.678,50.656c-2.8-2.317-6.377-7.49-7.246-10.723s-1.3-9.049-1.3-17.446V-65.253H2.637v-2.317Q12.048-70.61,20.024-79.3a58.122,58.122,0,0,0,7.722-10.642,75.291,75.291,0,0,0,5.539-13.682l1.457-4.778H43.1Z" transform="translate(428.795 145.463)" fill="#4d98e1"/>
    <path id="Контур_3" data-name="Контур 3" d="M125.452,26.721l2.461,1.448q-5.212,15.2-23.889,15.2-10.3,0-17.109-5.067-4.5-3.33-9.28-11.583-9.716,8.687-14.646,11.438a44.506,44.506,0,0,1-21.894,5.212c-10.634,0-20.551-2.558-26.786-7.674s-9.352-12.017-9.352-20.7q0-12.017,7.674-20.125c2.9-2.992,7.708-5.381,11.473-7.167a95.561,95.561,0,0,1,16.361-5.429q12.6-3.185,18.6-5.357A38.517,38.517,0,0,0,69.131-28.3a17.423,17.423,0,0,0,6.37-7.818q1.737-4.488,1.737-12.451,0-16.94-6.37-24.758a20.849,20.849,0,0,0-7.456-5.791,21.807,21.807,0,0,0-9.483-2.172,18.83,18.83,0,0,0-10.569,3.04,18.618,18.618,0,0,0-6.95,8.4l-3.62,8.4q-2.9,6.8-10.424,6.8A11.337,11.337,0,0,1,14.113-57.9a10.969,10.969,0,0,1-3.33-8.18q0-7.384,10.443-12.451A63.409,63.409,0,0,1,35.22-82.808a83.2,83.2,0,0,1,16.313-1.665,80.621,80.621,0,0,1,18.709,2.317c6.478,1.544,13.374,3.523,17.725,5.936q9.425,5.357,11.746,13.9,1.161,4.343,1.161,14.623V5.872q0,13.61,1.158,18.532c1.641,6.853,4.116,10.28,10.39,10.28a13.158,13.158,0,0,0,7.022-1.593Q121.977,31.5,125.452,26.721ZM77.528-30.324c-5.2,4.343-9.438,8.156-15.692,11.438a150.271,150.271,0,0,0-14.577,8.542,38.442,38.442,0,0,0-7.36,6.95,30.186,30.186,0,0,0-6.784,19.546q0,9.556,5.268,15.781a16.734,16.734,0,0,0,13.351,6.226c4.715,0,7.682-1.472,11.868-4.416a27.242,27.242,0,0,0,9.453-11.8q4.475-9.7,4.475-28.088Z" transform="translate(-4.957 160.084)" fill="#4d98e1"/>
    <path id="Контур_6" data-name="Контур 6" d="M125.452,26.721l2.461,1.448q-5.212,15.2-23.889,15.2-10.3,0-17.109-5.067-4.5-3.33-9.28-11.583-9.716,8.687-14.646,11.438a44.506,44.506,0,0,1-21.894,5.212c-10.634,0-20.551-2.558-26.786-7.674s-9.352-12.017-9.352-20.7q0-12.017,7.674-20.125c2.9-2.992,7.708-5.381,11.473-7.167a95.561,95.561,0,0,1,16.361-5.429q12.6-3.185,18.6-5.357A38.517,38.517,0,0,0,69.131-28.3a17.423,17.423,0,0,0,6.37-7.818q1.737-4.488,1.737-12.451,0-16.94-6.37-24.758a20.849,20.849,0,0,0-7.456-5.791,21.807,21.807,0,0,0-9.483-2.172,18.83,18.83,0,0,0-10.569,3.04,18.618,18.618,0,0,0-6.95,8.4l-3.62,8.4q-2.9,6.8-10.424,6.8A11.337,11.337,0,0,1,14.113-57.9a10.969,10.969,0,0,1-3.33-8.18q0-7.384,10.443-12.451A63.409,63.409,0,0,1,35.22-82.808a83.2,83.2,0,0,1,16.313-1.665,80.621,80.621,0,0,1,18.709,2.317c6.478,1.544,13.374,3.523,17.725,5.936q9.425,5.357,11.746,13.9,1.161,4.343,1.161,14.623V5.872q0,13.61,1.158,18.532c1.641,6.853,4.116,10.28,10.39,10.28a13.158,13.158,0,0,0,7.022-1.593Q121.977,31.5,125.452,26.721ZM77.528-30.324c-5.2,4.343-9.438,8.156-15.692,11.438a150.271,150.271,0,0,0-14.577,8.542,38.442,38.442,0,0,0-7.36,6.95,30.186,30.186,0,0,0-6.784,19.546q0,9.556,5.268,15.781a16.734,16.734,0,0,0,13.351,6.226c4.715,0,7.682-1.472,11.868-4.416a27.242,27.242,0,0,0,9.453-11.8q4.475-9.7,4.475-28.088Z" transform="translate(291.56 160.084)" fill="#4d98e1"/>
    <path id="Контур_8" data-name="Контур 8" d="M125.452,26.721l2.461,1.448q-5.212,15.2-23.889,15.2-10.3,0-17.109-5.067-4.5-3.33-9.28-11.583-9.716,8.687-14.646,11.438a44.506,44.506,0,0,1-21.894,5.212c-10.634,0-20.551-2.558-26.786-7.674s-9.352-12.017-9.352-20.7q0-12.017,7.674-20.125c2.9-2.992,7.708-5.381,11.473-7.167a95.561,95.561,0,0,1,16.361-5.429q12.6-3.185,18.6-5.357A38.517,38.517,0,0,0,69.131-28.3a17.423,17.423,0,0,0,6.37-7.818q1.737-4.488,1.737-12.451,0-16.94-6.37-24.758a20.849,20.849,0,0,0-7.456-5.791,21.807,21.807,0,0,0-9.483-2.172,18.83,18.83,0,0,0-10.569,3.04,18.618,18.618,0,0,0-6.95,8.4l-3.62,8.4q-2.9,6.8-10.424,6.8A11.337,11.337,0,0,1,14.113-57.9a10.969,10.969,0,0,1-3.33-8.18q0-7.384,10.443-12.451A63.409,63.409,0,0,1,35.22-82.808a83.2,83.2,0,0,1,16.313-1.665,80.621,80.621,0,0,1,18.709,2.317c6.478,1.544,13.374,3.523,17.725,5.936q9.425,5.357,11.746,13.9,1.161,4.343,1.161,14.623V5.872q0,13.61,1.158,18.532c1.641,6.853,4.116,10.28,10.39,10.28a13.158,13.158,0,0,0,7.022-1.593Q121.977,31.5,125.452,26.721ZM77.528-30.324c-5.2,4.343-9.438,8.156-15.692,11.438a150.271,150.271,0,0,0-14.577,8.542,38.442,38.442,0,0,0-7.36,6.95,30.186,30.186,0,0,0-6.784,19.546q0,9.556,5.268,15.781a16.734,16.734,0,0,0,13.351,6.226c4.715,0,7.682-1.472,11.868-4.416a27.242,27.242,0,0,0,9.453-11.8q4.475-9.7,4.475-28.088Z" transform="translate(512.465 159.136)" fill="#4d98e1"/>
    <circle id="Эллипс_2" data-name="Эллипс 2" cx="17.791" cy="17.791" r="17.791" transform="translate(665.68 167.532)" fill="#4d98e1"/>
  </g>
</svg>
