<svg xmlns="http://www.w3.org/2000/svg" width="219.885" height="153.635" viewBox="0 0 219.885 153.635">
  <g id="Сгруппировать_59" data-name="Сгруппировать 59" transform="translate(-618.869 -89.302)">
    <path id="Контур_8" data-name="Контур 8" d="M149.076,48.522l2.944,1.732q-6.234,18.183-28.573,18.183-12.314,0-20.464-6.061-5.376-3.983-11.1-13.854Q80.263,58.912,74.367,62.2,63.095,68.437,48.18,68.437c-12.719,0-24.58-3.059-32.038-9.178S4.957,44.886,4.957,34.5q0-14.373,9.178-24.071c3.463-3.579,9.22-6.436,13.722-8.572s11.025-4.3,19.568-6.494q15.066-3.81,22.252-6.407a46.069,46.069,0,0,0,12.035-6.234,20.839,20.839,0,0,0,7.619-9.351Q91.411-32,91.411-41.526q0-20.261-7.619-29.612a24.937,24.937,0,0,0-8.918-6.927,26.083,26.083,0,0,0-11.343-2.6,22.521,22.521,0,0,0-12.641,3.637,22.269,22.269,0,0,0-8.312,10.044L38.247-56.939Q34.784-48.8,25.779-48.8a13.56,13.56,0,0,1-9.871-3.9,13.119,13.119,0,0,1-3.983-9.784q0-8.832,12.49-14.893a75.843,75.843,0,0,1,16.738-5.109,99.513,99.513,0,0,1,19.511-1.991A96.429,96.429,0,0,1,83.042-81.7c7.748,1.847,16,4.214,21.2,7.1q11.272,6.407,14.048,16.624,1.388,5.2,1.388,17.49V23.586q0,16.278,1.385,22.166c1.963,8.2,4.923,12.3,12.427,12.3q5.368,0,8.4-1.9T149.076,48.522ZM91.757-19.707c-6.214,5.2-11.288,9.755-18.769,13.68A179.734,179.734,0,0,0,55.553,4.191a45.978,45.978,0,0,0-8.8,8.312,36.1,36.1,0,0,0-8.115,23.378q0,11.429,6.3,18.876A20.015,20.015,0,0,0,60.9,62.2c5.639,0,9.188-1.761,14.195-5.282A32.583,32.583,0,0,0,86.4,42.808q5.352-11.6,5.352-33.6Z" transform="translate(613.912 173.775)" fill="#4d98e1"/>
    <circle id="Эллипс_2" data-name="Эллипс 2" cx="21.279" cy="21.279" r="21.279" transform="translate(796.196 200.379)" fill="#4d98e1"/>
  </g>
</svg>
