<svg width="25" height="25" viewBox="0 0 25 25" fill="none" xmlns="http://www.w3.org/2000/svg">
<g opacity="0.65">
<path fill-rule="evenodd" clip-rule="evenodd" d="M17.0823 17.0846C17.2146 16.9521 17.3717 16.847 17.5447 16.7753C17.7177 16.7035 17.9031 16.6666 18.0904 16.6666C18.2776 16.6666 18.4631 16.7035 18.6361 16.7753C18.809 16.847 18.9662 16.9521 19.0985 17.0846L24.5821 22.5674C24.8494 22.8344 24.9998 23.1967 25 23.5745C25.0002 23.9523 24.8503 24.3148 24.5833 24.5821C24.3163 24.8494 23.954 24.9997 23.5761 25C23.1982 25.0002 22.8357 24.8503 22.5684 24.5833L17.0847 19.1005C16.9522 18.9682 16.8471 18.8111 16.7753 18.6382C16.7036 18.4652 16.6667 18.2798 16.6667 18.0926C16.6667 17.9053 16.7036 17.7199 16.7753 17.547C16.8471 17.374 16.9522 17.2169 17.0847 17.0846H17.0823Z" fill="#232323"/>
<path fill-rule="evenodd" clip-rule="evenodd" d="M10.4162 19.2308C12.1594 19.2308 13.8634 18.7138 15.3129 17.7453C16.7623 16.7768 17.8919 15.4002 18.559 13.7897C19.2261 12.1791 19.4007 10.4069 19.0606 8.69712C18.7205 6.98735 17.8811 5.41683 16.6484 4.18415C15.4158 2.95148 13.8454 2.11202 12.1357 1.77192C10.426 1.43183 8.65385 1.60638 7.04335 2.2735C5.43285 2.94062 4.05634 4.07034 3.08788 5.51981C2.11941 6.96928 1.6025 8.6734 1.6025 10.4167C1.6025 12.7543 2.53108 14.9962 4.18397 16.6492C5.83687 18.3021 8.07867 19.2308 10.4162 19.2308V19.2308ZM20.8324 10.4167C20.8324 12.4769 20.2215 14.4908 19.077 16.2039C17.9324 17.9169 16.3056 19.252 14.4023 20.0404C12.499 20.8288 10.4047 21.0351 8.38411 20.6332C6.36356 20.2312 4.50757 19.2392 3.05084 17.7824C1.59411 16.3256 0.602061 14.4695 0.200149 12.4489C-0.201762 10.4282 0.00451316 8.33378 0.792891 6.43038C1.58127 4.52698 2.91634 2.90012 4.62928 1.75552C6.34221 0.610927 8.35608 4.02565e-08 10.4162 4.02565e-08C11.7842 -0.000120225 13.1387 0.269226 14.4026 0.792659C15.6665 1.31609 16.8148 2.08336 17.7822 3.05065C18.7495 4.01794 19.5168 5.1663 20.0404 6.43017C20.5639 7.69404 20.8333 9.04865 20.8333 10.4167H20.8324Z" fill="#232323"/>
</g>
</svg>
