<?xml version="1.0" standalone="no"?>
<!DOCTYPE svg PUBLIC "-//W3C//DTD SVG 20010904//EN"
 "http://www.w3.org/TR/2001/REC-SVG-20010904/DTD/svg10.dtd">
<svg version="1.0" xmlns="http://www.w3.org/2000/svg"
 width="687.000000pt" height="687.000000pt" viewBox="0 0 687.000000 687.000000"
 preserveAspectRatio="xMidYMid meet">
<metadata>
Created by potrace 1.14, written by Peter Selinger 2001-2017
</metadata>
<g transform="translate(0.000000,687.000000) scale(0.100000,-0.100000)"
fill="#000000" stroke="none">
<path d="M1538 5835 c-1 -1 -39 -6 -83 -9 -67 -5 -171 -21 -349 -52 -17 -3
-74 -16 -126 -30 -52 -13 -102 -26 -110 -28 -42 -11 -203 -72 -260 -98 -337
-157 -468 -402 -350 -653 130 -274 541 -325 718 -89 22 29 79 145 131 265 52
118 102 226 112 241 11 14 19 29 19 32 0 9 40 54 99 113 67 67 168 128 268
160 115 38 292 42 419 8 280 -73 479 -254 573 -522 37 -105 49 -143 55 -176 5
-27 20 -112 31 -177 3 -19 8 -136 10 -260 7 -373 -31 -535 -161 -694 -82 -101
-259 -219 -435 -290 -78 -31 -295 -104 -329 -111 -8 -2 -56 -15 -106 -29 -50
-15 -100 -28 -110 -31 -10 -2 -113 -29 -229 -60 -373 -99 -589 -180 -794 -297
-46 -26 -85 -48 -87 -48 -2 0 -30 -20 -61 -44 -197 -151 -320 -364 -367 -636
-15 -85 -15 -323 -1 -400 14 -71 56 -203 81 -253 27 -52 90 -153 109 -173 5
-6 24 -26 40 -45 221 -250 635 -391 1130 -384 197 3 357 25 505 72 30 9 57 17
60 18 3 1 18 7 33 13 16 7 31 12 34 12 15 0 193 96 253 136 86 57 269 203 373
297 43 38 82 66 86 61 4 -5 42 -61 83 -124 131 -197 238 -300 396 -379 87 -44
224 -85 327 -98 74 -9 292 -9 360 0 46 7 65 10 120 21 166 35 341 141 444 271
54 67 141 226 141 257 0 7 -21 25 -46 38 -42 23 -46 24 -55 7 -22 -38 -123
-149 -174 -191 -87 -71 -213 -100 -358 -83 -125 14 -208 74 -264 189 -56 116
-79 222 -99 453 -4 44 -8 656 -9 1360 -2 1127 -6 1411 -21 1489 -2 11 -6 38
-9 61 -9 59 -44 162 -78 225 -112 206 -307 353 -609 461 -102 37 -489 141
-563 152 -16 3 -41 8 -55 11 -32 7 -79 14 -155 22 -33 3 -71 8 -85 11 -27 6
-466 13 -472 8z m1169 -2695 c-2 -327 -7 -608 -10 -625 -2 -16 -8 -57 -12 -90
-53 -462 -202 -779 -463 -978 -174 -134 -310 -188 -470 -188 -96 0 -137 7
-224 36 -193 65 -353 240 -427 465 -12 36 -24 76 -26 90 -3 14 -7 36 -10 50
-11 48 -13 266 -4 335 12 86 43 212 64 262 74 175 153 293 284 424 131 130
283 232 626 419 270 147 363 211 585 401 l85 72 3 -39 c2 -21 2 -307 -1 -634z"/>
<path d="M6069 2356 c-300 -63 -523 -333 -527 -637 -4 -335 228 -614 556 -669
76 -13 199 -8 267 10 22 6 45 12 50 13 6 2 36 15 67 29 165 76 289 213 350
385 26 74 27 83 34 173 21 261 -125 518 -361 638 -124 62 -300 86 -436 58z"/>
</g>
</svg>
